<svg width="24" height="24" viewBox="0 0 24 24" fill="none" xmlns="http://www.w3.org/2000/svg">
<path d="M14.9421 18.5808C15.4773 18.0576 15.5193 17.3292 14.9421 16.6896L10.4457 12L14.9421 7.31044C15.5193 6.67084 15.4773 5.94124 14.9421 5.42164C14.4081 4.89844 13.5057 4.93204 13.0041 5.42164C12.5025 5.90884 7.60168 11.0556 7.60168 11.0556C7.47465 11.1782 7.37363 11.3251 7.30462 11.4876C7.23562 11.65 7.20006 11.8247 7.20006 12.0012C7.20006 12.1777 7.23562 12.3524 7.30462 12.5149C7.37363 12.6774 7.47465 12.8243 7.60168 12.9468C7.60168 12.9468 12.5025 18.0912 13.0041 18.5808C13.5057 19.0716 14.4081 19.104 14.9421 18.5808Z" fill="white"/>
</svg>
