<svg width="24" height="24" viewBox="0 0 24 24" fill="none" xmlns="http://www.w3.org/2000/svg">
<path d="M9.05792 18.5808C8.52272 18.0576 8.48072 17.3292 9.05792 16.6896L13.5543 12L9.05792 7.31044C8.48072 6.67084 8.52272 5.94124 9.05792 5.42164C9.59192 4.89844 10.4943 4.93204 10.9959 5.42164C11.4975 5.90884 16.3983 11.0556 16.3983 11.0556C16.5253 11.1782 16.6264 11.3251 16.6954 11.4876C16.7644 11.65 16.7999 11.8247 16.7999 12.0012C16.7999 12.1777 16.7644 12.3524 16.6954 12.5149C16.6264 12.6774 16.5253 12.8243 16.3983 12.9468C16.3983 12.9468 11.4975 18.0912 10.9959 18.5808C10.4943 19.0716 9.59192 19.104 9.05792 18.5808Z" fill="white"/>
</svg>
